<svg width="433" height="369" viewBox="0 0 433 369" fill="none" xmlns="http://www.w3.org/2000/svg">
<g clip-path="url(#clip0_115_828)">
<path opacity="0.1" d="M430.543 254.24C418.73 194.668 349.519 147.056 336.02 84.9784C311.486 5.99842 230.618 -6.48846 178.069 27.8125C94.8049 82.1628 183.631 95.6503 20.3764 224.24C-19.9347 255.991 -7.08974 396.149 119.727 363.983C187.974 346.673 208.721 344.244 239.419 341.394C316.793 334.21 450.373 354.239 430.543 254.24Z" fill="#1DDD57"/>
<path d="M338.109 269.17L218.518 332.333L99.1077 269.17V173.791H338.109V269.17Z" fill="white"/>
<path d="M218.518 333.301C218.36 333.301 218.204 333.262 218.065 333.188L98.6582 270.026C98.5029 269.944 98.3729 269.821 98.282 269.671C98.191 269.521 98.1427 269.349 98.142 269.173V173.79C98.142 173.533 98.2441 173.287 98.4258 173.105C98.6074 172.924 98.8539 172.822 99.1108 172.822H338.109C338.366 172.822 338.613 172.924 338.794 173.105C338.976 173.287 339.078 173.533 339.078 173.79V269.17C339.077 269.346 339.029 269.518 338.938 269.668C338.847 269.818 338.717 269.941 338.562 270.023L218.971 333.186C218.832 333.261 218.676 333.3 218.518 333.301ZM100.076 268.588L218.518 331.237L337.141 268.587V174.759H100.076V268.588Z" fill="#0F132A"/>
<path d="M338.109 153.323L218.518 90.1611L272.258 64.2581L391.849 127.421L338.109 153.323Z" fill="white"/>
<path d="M338.109 154.292C337.952 154.292 337.796 154.254 337.657 154.18L218.066 91.0175C217.907 90.9337 217.775 90.8075 217.684 90.6531C217.593 90.4987 217.547 90.3221 217.55 90.1429C217.553 89.9636 217.606 89.7888 217.703 89.6379C217.799 89.4869 217.936 89.3657 218.097 89.2877L271.837 63.3847C271.974 63.3185 272.124 63.2854 272.276 63.2883C272.427 63.2911 272.576 63.3297 272.71 63.401L392.302 126.564C392.46 126.648 392.592 126.774 392.683 126.928C392.774 127.082 392.821 127.259 392.817 127.438C392.814 127.617 392.761 127.792 392.665 127.943C392.568 128.094 392.431 128.215 392.27 128.293L338.53 154.196C338.399 154.259 338.255 154.292 338.109 154.292ZM220.667 90.1991L338.129 152.237L389.7 127.38L272.238 65.3439L220.667 90.1991Z" fill="#0F132A"/>
<path d="M99.1077 153.323L218.699 90.1611L164.959 64.2581L45.368 127.421L99.1077 153.323Z" fill="white"/>
<path d="M99.1077 154.292C98.962 154.292 98.8181 154.259 98.6869 154.196L44.9503 128.293C44.7889 128.215 44.6522 128.094 44.5556 127.943C44.4589 127.792 44.4059 127.617 44.4026 127.438C44.3993 127.259 44.4458 127.082 44.5369 126.928C44.628 126.774 44.7601 126.648 44.9185 126.564L164.51 63.401C164.644 63.3297 164.793 63.2911 164.944 63.2883C165.096 63.2854 165.246 63.3185 165.383 63.3847L219.123 89.2877C219.284 89.3657 219.421 89.4869 219.517 89.6379C219.614 89.7888 219.667 89.9636 219.67 90.1429C219.674 90.3221 219.627 90.4987 219.536 90.6531C219.445 90.8075 219.313 90.9337 219.154 91.0175L99.5634 154.18C99.4229 154.254 99.2664 154.293 99.1077 154.292ZM47.5171 127.382L99.0875 152.238L216.55 90.2007L164.979 65.3439L47.5171 127.382Z" fill="#0F132A"/>
<path d="M99.1077 153.323L218.699 216.486L157.209 250.138L37.618 186.976L99.1077 153.323Z" fill="white"/>
<path d="M157.209 251.107C157.051 251.107 156.896 251.069 156.756 250.995L37.1654 187.832C37.011 187.75 36.8816 187.628 36.791 187.478C36.7003 187.329 36.6518 187.158 36.6505 186.983C36.6493 186.808 36.6953 186.636 36.7838 186.486C36.8722 186.335 36.9998 186.211 37.153 186.127L98.6427 152.474C98.7831 152.397 98.9405 152.356 99.1007 152.355C99.2609 152.354 99.4188 152.392 99.5603 152.468L219.151 215.631C219.306 215.712 219.435 215.835 219.526 215.984C219.616 216.133 219.665 216.305 219.666 216.479C219.667 216.654 219.621 216.826 219.533 216.977C219.445 217.127 219.317 217.251 219.164 217.336L157.674 250.989C157.531 251.066 157.372 251.107 157.209 251.107ZM39.664 186.961L157.201 249.039L216.654 216.501L99.1162 154.423L39.664 186.961Z" fill="#0F132A"/>
<path d="M338.109 153.323L218.518 216.486L280.008 250.138L399.599 186.976L338.109 153.323Z" fill="white"/>
<path d="M280.009 251.107C279.847 251.107 279.687 251.066 279.544 250.989L218.055 217.336C217.902 217.251 217.774 217.127 217.685 216.977C217.597 216.826 217.551 216.654 217.552 216.479C217.554 216.305 217.602 216.133 217.693 215.984C217.783 215.835 217.913 215.712 218.067 215.631L337.658 152.468C337.8 152.392 337.958 152.354 338.118 152.355C338.278 152.356 338.435 152.397 338.576 152.474L400.066 186.127C400.219 186.211 400.346 186.335 400.435 186.486C400.523 186.636 400.569 186.808 400.568 186.983C400.567 187.158 400.518 187.329 400.428 187.478C400.337 187.628 400.207 187.75 400.053 187.832L280.462 250.995C280.323 251.069 280.167 251.107 280.009 251.107ZM220.567 216.501L280.019 249.039L397.556 186.961L338.103 154.423L220.567 216.501Z" fill="#0F132A"/>
<path d="M218.699 90.1609L99.1077 153.323L218.518 216.486L338.109 153.323L218.699 90.1609Z" fill="#0F132A"/>
<path d="M219.487 216.485H217.549V332.332H219.487V216.485Z" fill="#0F132A"/>
<path d="M151.514 147.589C151.353 147.589 151.197 147.539 151.066 147.445C150.899 147.327 150.785 147.146 150.75 146.943C150.716 146.741 150.763 146.533 150.882 146.365C151.025 146.163 165.032 125.913 149.395 107.453C146.628 104.168 143.176 101.529 139.28 99.7195C135.385 97.91 131.142 96.9743 126.847 96.9778H126.636C128.121 102.136 127.856 106.723 125.753 110.241C124.857 111.831 123.535 113.139 121.936 114.018C120.337 114.898 118.524 115.313 116.701 115.217C115.192 115.093 113.753 114.532 112.558 113.603C111.363 112.674 110.466 111.416 109.975 109.984C108.255 105.498 110.052 101.149 114.789 98.3457C117.79 96.6909 121.124 95.7318 124.546 95.5394C123.433 92.5884 121.985 89.7747 120.232 87.1531C114.586 78.5303 104.296 72.5613 92.0001 70.7764C81.5794 69.2644 71.5926 71.0453 66.5543 75.3125C66.3974 75.4453 66.1941 75.5103 65.9893 75.4932C65.7844 75.4761 65.5947 75.3784 65.462 75.2215C65.3292 75.0645 65.2642 74.8613 65.2812 74.6564C65.2983 74.4516 65.3961 74.2619 65.553 74.1291C70.9145 69.5883 81.3825 67.6686 92.2225 69.2466C104.958 71.0957 115.639 77.3136 121.529 86.3075C123.439 89.1599 124.992 92.2352 126.155 95.465C130.788 95.3537 135.387 96.2833 139.613 98.1852C143.839 100.087 147.585 102.913 150.574 106.455C166.999 125.844 152.292 147.053 152.142 147.266C152.07 147.365 151.976 147.447 151.867 147.503C151.757 147.559 151.636 147.589 151.514 147.589ZM125.049 97.0344C121.731 97.1758 118.492 98.0813 115.582 99.6802C111.493 102.1 109.979 105.654 111.426 109.43C111.818 110.587 112.538 111.604 113.5 112.358C114.461 113.112 115.621 113.569 116.838 113.674C118.371 113.742 119.892 113.383 121.232 112.637C122.572 111.89 123.678 110.786 124.426 109.447C126.356 106.215 126.533 101.919 125.046 97.0344H125.049Z" fill="#0F132A"/>
<path d="M53.1785 87.8082C51.8615 88.2038 50.442 88.0698 49.2224 87.4345C48.0028 86.7992 47.0793 85.713 46.6487 84.407C46.218 83.101 46.3141 81.6785 46.9166 80.4424C47.5191 79.2062 48.5803 78.2541 49.8743 77.7887C51.1683 77.3233 52.5929 77.3814 53.8447 77.9507C55.0965 78.5199 56.0766 79.5554 56.5764 80.8365C57.0761 82.1176 57.0561 83.5432 56.5204 84.8098C55.9848 86.0763 54.9759 87.0837 53.7086 87.6175C53.5355 87.6907 53.3585 87.7543 53.1785 87.8082ZM50.6016 79.1963C50.476 79.2341 50.3526 79.2786 50.2319 79.3296C49.3402 79.7056 48.6305 80.4149 48.254 81.3064C47.8775 82.1979 47.8639 83.2011 48.2161 84.1025C48.5684 85.0039 49.2586 85.7321 50.1398 86.1321C51.0211 86.532 52.0236 86.5722 52.934 86.2439C53.8443 85.9156 54.5906 85.2449 55.0137 84.3746C55.4369 83.5043 55.5036 82.5031 55.1995 81.5844C54.8954 80.6656 54.2447 79.9019 53.3859 79.4559C52.5271 79.0098 51.528 78.9167 50.6016 79.1963Z" fill="#0F132A"/>
<path d="M53.1692 75.6637C51.9234 76.0357 50.5841 75.934 49.4087 75.3782C48.2333 74.8224 47.3048 73.8518 46.8018 72.6528C46.3985 71.6916 46.2893 70.6324 46.488 69.6092C46.6867 68.5859 47.1844 67.6446 47.9181 66.9042C48.6518 66.1638 49.5886 65.6576 50.61 65.4497C51.6314 65.2417 52.6916 65.3414 53.6564 65.736C54.6212 66.1305 55.4473 66.8024 56.0302 67.6665C56.6132 68.5306 56.9268 69.5482 56.9314 70.5905C56.936 71.6329 56.6314 72.6532 56.0561 73.5224C55.4808 74.3916 54.6606 75.0707 53.6994 75.4738C53.5261 75.5463 53.3491 75.6097 53.1692 75.6637ZM50.5955 67.0511C50.4684 67.0892 50.3435 67.1339 50.2211 67.1852C49.3119 67.567 48.5916 68.2943 48.2184 69.2071C47.8452 70.1199 47.8497 71.1435 48.2309 72.053C48.5089 72.7159 48.9731 73.2841 49.5672 73.6888C50.1614 74.0936 50.8601 74.3174 51.5788 74.3334C52.2975 74.3494 53.0055 74.1568 53.617 73.7789C54.2286 73.4009 54.7176 72.8539 55.0248 72.204C55.332 71.554 55.4443 70.829 55.3481 70.1165C55.2519 69.4041 54.9513 68.7348 54.4827 68.1896C54.0142 67.6444 53.3976 67.2466 52.7078 67.0444C52.0179 66.8423 51.2842 66.8443 50.5955 67.0503V67.0511Z" fill="#0F132A"/>
<path d="M51.6649 81.1445C55.4709 81.1445 58.5563 79.0838 58.5563 76.5417C58.5563 73.9997 55.4709 71.939 51.6649 71.939C47.8589 71.939 44.7736 73.9997 44.7736 76.5417C44.7736 79.0838 47.8589 81.1445 51.6649 81.1445Z" fill="white"/>
<path d="M54.7153 81.4833C53.7273 81.7753 52.7022 81.9226 51.6719 81.9204C47.3722 81.9204 43.9993 79.5644 43.9993 76.5489C43.9993 73.5333 47.3621 71.1688 51.6603 71.1641C53.5342 71.1282 55.3779 71.6399 56.9652 72.6366C57.6781 73.008 58.2756 73.5677 58.6928 74.2548C59.11 74.9418 59.331 75.7301 59.3317 76.534C59.3324 77.3378 59.1128 78.1265 58.6969 78.8143C58.2809 79.5021 57.6844 80.0628 56.9721 80.4355C56.2759 80.8945 55.5153 81.2477 54.7153 81.4833ZM49.0872 73.083C47.0164 73.703 45.5486 75.0415 45.5493 76.545C45.5493 78.6197 48.3525 80.3704 51.6719 80.3673C53.2399 80.4003 54.7835 79.9759 56.1142 79.1459C56.6133 78.916 57.036 78.5478 57.3321 78.085C57.6282 77.6221 57.7853 77.0841 57.7848 76.5346C57.7843 75.9851 57.6263 75.4473 57.3293 74.985C57.0324 74.5227 56.6091 74.1552 56.1096 73.9262C54.7779 73.098 53.2335 72.6762 51.6657 72.7126C50.7928 72.7103 49.9242 72.8351 49.0872 73.083Z" fill="#0F132A"/>
<path d="M53.3552 81.0043L53.1924 72.053L50.9666 71.9631L50.8109 81.109L53.3552 81.0043Z" fill="#0F132A"/>
<path d="M42.5222 78.4893C42.9151 78.4893 43.2336 78.1708 43.2336 77.7779C43.2336 77.3849 42.9151 77.0664 42.5222 77.0664C42.1293 77.0664 41.8107 77.3849 41.8107 77.7779C41.8107 78.1708 42.1293 78.4893 42.5222 78.4893Z" fill="#0F132A"/>
<path d="M43.0778 74.6824C43.4708 74.6824 43.7893 74.3639 43.7893 73.971C43.7893 73.5781 43.4708 73.2595 43.0778 73.2595C42.6849 73.2595 42.3664 73.5781 42.3664 73.971C42.3664 74.3639 42.6849 74.6824 43.0778 74.6824Z" fill="#0F132A"/>
<path d="M273.286 102.894C273.12 102.894 272.959 102.841 272.826 102.742C272.692 102.644 272.594 102.505 272.545 102.346C269.975 92.7469 269.289 82.7403 270.526 72.8799C272.529 58.4648 280.479 39.5461 306.974 31.2621C310.702 30.0635 314.526 29.1868 318.404 28.6418C319.653 20.8445 324.402 12.3861 335.023 6.55028C360.259 -7.31611 377.305 5.12505 377.474 5.25215C377.639 5.37548 377.747 5.55907 377.776 5.76255C377.805 5.96603 377.752 6.17272 377.629 6.33716C377.506 6.50159 377.322 6.6103 377.119 6.63937C376.915 6.66844 376.709 6.61549 376.544 6.49216C376.383 6.37126 360.092 -5.4561 335.77 7.90965C325.846 13.3634 321.303 21.1909 320.011 28.4574C331.697 27.3065 337.293 31.2048 339.805 34.149C341.359 35.9195 342.358 38.1082 342.677 40.4423C342.996 42.7764 342.621 45.1528 341.598 47.2753C340.791 48.9908 339.481 50.421 337.844 51.377C336.206 52.333 334.317 52.7698 332.426 52.6298C325.9 52.2469 320.499 46.7568 318.668 38.6425C318.064 35.8957 317.904 33.07 318.192 30.2724C314.545 30.7964 310.948 31.6236 307.438 32.7455C286.788 39.202 274.887 52.7794 272.06 73.0977C270.849 82.7343 271.517 92.5144 274.027 101.897C274.063 102.013 274.071 102.135 274.05 102.255C274.03 102.374 273.981 102.487 273.909 102.585C273.837 102.682 273.743 102.761 273.635 102.816C273.527 102.87 273.408 102.899 273.286 102.899V102.894ZM319.773 30.0787C319.45 32.8229 319.588 35.6018 320.18 38.3007C321.855 45.7237 326.697 50.7403 332.517 51.0821C334.103 51.1957 335.686 50.8273 337.06 50.0252C338.433 49.223 339.531 48.0246 340.211 46.5871C341.097 44.7362 341.419 42.6656 341.137 40.633C340.855 38.6005 339.981 36.6959 338.624 35.1565C335 30.9041 328.387 29.1866 319.773 30.0787Z" fill="#0F132A"/>
<path d="M395.527 13.0851C394.483 13.0829 393.461 12.7856 392.579 12.2274C391.697 11.6693 390.991 10.8731 390.542 9.93079C390.093 8.98844 389.919 7.93834 390.042 6.90168C390.164 5.86502 390.577 4.88406 391.233 4.07202C391.889 3.25998 392.761 2.64996 393.749 2.31237C394.736 1.97477 395.799 1.92336 396.815 2.16407C397.831 2.40478 398.758 2.9278 399.489 3.67276C400.22 4.41772 400.726 5.35426 400.947 6.37429C401.121 7.18287 401.112 8.02006 400.92 8.82457C400.728 9.62907 400.359 10.3805 399.84 11.0239C399.32 11.6673 398.663 12.1863 397.917 12.5429C397.171 12.8995 396.354 13.0848 395.527 13.0851ZM395.539 3.56489C394.714 3.56487 393.91 3.82052 393.237 4.29661C392.564 4.77269 392.056 5.44578 391.781 6.22309C391.507 7.0004 391.481 7.84367 391.706 8.63668C391.931 9.42969 392.396 10.1334 393.038 10.6508C393.679 11.1682 394.466 11.4739 395.288 11.5256C396.111 11.5774 396.93 11.3727 397.631 10.9398C398.333 10.5069 398.882 9.86707 399.205 9.10851C399.528 8.34995 399.607 7.51001 399.432 6.70444C399.243 5.81316 398.753 5.01426 398.044 4.44238C397.334 3.8705 396.45 3.56059 395.539 3.56489Z" fill="#0F132A"/>
<path d="M393.193 25.734C391.773 25.7339 390.407 25.1892 389.376 24.2121C388.345 23.235 387.728 21.8998 387.651 20.4814C387.575 19.063 388.045 17.6693 388.966 16.5873C389.886 15.5053 391.186 14.8173 392.598 14.6649C394.011 14.5125 395.428 14.9073 396.557 15.7681C397.687 16.6288 398.444 17.8901 398.672 19.2921C398.901 20.6941 398.582 22.1302 397.784 23.3048C396.985 24.4793 395.766 25.303 394.378 25.6061C393.989 25.6911 393.592 25.734 393.193 25.734ZM393.213 16.2131C392.926 16.2132 392.64 16.2441 392.36 16.3053C391.37 16.5227 390.501 17.1113 389.932 17.9499C389.363 18.7886 389.137 19.8135 389.3 20.8138C389.464 21.8141 390.004 22.7137 390.811 23.3276C391.617 23.9414 392.629 24.2228 393.636 24.1137C394.644 24.0047 395.572 23.5136 396.228 22.7415C396.885 21.9694 397.221 20.975 397.166 19.9628C397.112 18.9507 396.672 17.9979 395.937 17.3004C395.201 16.6029 394.226 16.2137 393.213 16.2131Z" fill="#0F132A"/>
<path d="M401.517 15.3492C402.005 12.7021 399.188 9.96326 395.225 9.23191C391.262 8.50057 387.653 10.0537 387.164 12.7008C386.676 15.348 389.493 18.0868 393.456 18.8181C397.419 19.5495 401.028 17.9964 401.517 15.3492Z" fill="white"/>
<path d="M395.408 19.7749C394.706 19.7738 394.005 19.7089 393.315 19.5812C391.366 19.2578 389.554 18.3727 388.1 17.0345C387.464 16.4917 386.975 15.7973 386.678 15.0154C386.381 14.2335 386.286 13.3894 386.402 12.5612C386.59 11.7462 386.98 10.9916 387.536 10.3672C388.092 9.74274 388.797 9.26855 389.585 8.9884C391.429 8.29212 393.427 8.11311 395.365 8.47072C397.303 8.82833 399.106 9.70896 400.58 11.0174C401.216 11.5602 401.705 12.2546 402.002 13.0365C402.299 13.8184 402.394 14.6624 402.278 15.4907C402.09 16.3057 401.7 17.0602 401.144 17.6847C400.588 18.3091 399.883 18.7833 399.095 19.0635C397.927 19.5471 396.672 19.7891 395.408 19.7749ZM393.267 9.82541C392.215 9.81202 391.17 10.0116 390.197 10.4121C389.646 10.5964 389.15 10.9152 388.754 11.3396C388.357 11.764 388.073 12.2805 387.926 12.8425C387.863 13.4198 387.944 14.0038 388.163 14.5417C388.382 15.0796 388.732 15.5544 389.18 15.9232C390.434 17.0173 391.959 17.754 393.595 18.056C395.231 18.3581 396.919 18.2143 398.48 17.6398C399.031 17.4555 399.527 17.1367 399.924 16.7123C400.32 16.2879 400.605 15.7714 400.751 15.2094C400.815 14.6321 400.734 14.0479 400.515 13.5099C400.296 12.9719 399.946 12.4972 399.497 12.1287C398.263 11.0032 396.728 10.2618 395.08 9.99513C394.483 9.88397 393.877 9.82716 393.27 9.82541H393.267Z" fill="#0F132A"/>
<path d="M393.445 9.05347L391.887 18.4047L394.186 18.9286L396.114 9.43554L393.445 9.05347Z" fill="#0F132A"/>
<path d="M402.788 19.1138C403.204 19.1138 403.541 18.7765 403.541 18.3605C403.541 17.9444 403.204 17.6072 402.788 17.6072C402.372 17.6072 402.035 17.9444 402.035 18.3605C402.035 18.7765 402.372 19.1138 402.788 19.1138Z" fill="#0F132A"/>
<path d="M404.101 15.2576C404.517 15.2576 404.854 14.9203 404.854 14.5043C404.854 14.0882 404.517 13.751 404.101 13.751C403.685 13.751 403.348 14.0882 403.348 14.5043C403.348 14.9203 403.685 15.2576 404.101 15.2576Z" fill="#0F132A"/>
</g>
<defs>
<clipPath id="clip0_115_828">
<rect width="432.527" height="368.746" fill="white"/>
</clipPath>
</defs>
</svg>
